Lyrics-

This life don’t last forever (hold my hand)
So tell me what we’re waitin’ for (hold my hand)
Better off being together (hold my hand)
Than being miserable alone (hold my hand)

Cause I’ve been there before
And you’ve been there before
But together we can be alright
Cause when it gets dark and when it gets cold
We can just hold each other till we see the sunlight

So if you just hold my hand
Baby I promise that I’ll do all I can
Things will get better if you just hold my hand
Nothing can come in between us if you just hold, hold my, hold my, hold my hand

The nights are getting darker (hold my hand)
And there’s no peace inside (hold my hand)
So why make our lives harder (hold my hand)
By fighting love, tonight

Cause I’ve been there before
And you’ve been there before
But together we can be alright.
Cause when it gets dark and when it gets cold
We can just hold each other till we see the sunlight

So if you just hold my hand
Baby I promise that I’ll do all I can
Things will get better if you just hold my hand
Nothing can come in between us
If you just hold my hand



General
Complete name                    : Michael Jackson Duet with Akon - Hold My Hand.mp4
Format                           : MPEG-4
Format profile                   : Base Media / Version 2
Codec ID                         : mp42
File size                        : 51.9 MiB
Duration                         : 3mn 43s
Overall bit rate                 : 1 950 Kbps
Encoded date                     : UTC 2010-12-07 02:08:06
Tagged date                      : UTC 2010-12-07 02:08:06


Video
ID                               : 1
Format                           : AVC
Format/Info                      : Advanced Video Codec
Format profile                   : High@L3.1
Format settings, CABAC           : Yes
Format settings, ReFrames        : 1 frame
Codec ID                         : avc1
Codec ID/Info                    : Advanced Video Coding
Duration                         : 3mn 43s
Bit rate mode                    : Variable
Bit rate                         : 1 816 Kbps
Maximum bit rate                 : 6 865 Kbps
Width                            : 1 280 pixels
Height                           : 720 pixels
Display aspect ratio             : 16:9
Frame rate mode                  : Variable
Frame rate                       : 23.976 fps
Minimum frame rate               : 17.241 fps
Maximum frame rate               : 24.390 fps
Color space                      : YUV
Chroma subsampling               : 4:2:0
Bit depth                        : 8 bits
Scan type                        : Progressive
Bits/(Pixel*Frame)               : 0.082
Stream size                      : 48.3 MiB (93%)


Audio
ID                               : 2
Format                           : AAC
Format/Info                      : Advanced Audio Codec
Format version                   : Version 4
Format profile                   : LC
Format settings, SBR             : No
Codec ID                         : 40
Duration                         : 3mn 43s
Bit rate mode                    : Variable
Bit rate                         : 128 Kbps
Maximum bit rate                 : 149 Kbps
Channel(s)                       : 2 channels
Channel positions                : Front: L R
Sampling rate                    : 44.1 KHz
Stream size                      : 3.40 MiB (7%)
 
http://www.postimg.com/26000/25784.jpg

